Patient4_TMGait_0pt6_01_right_11_EMG.mot
version=1
nRows=40
nColumns=33
inDegrees=no
endheader
time	1LAddLong	2LGlutMax	3LGlutMed	4LIliopsoas	5LSemiMemb	6LBicFemLong	7LRecFem	8LVastMed	9LVastLat	10LGasMed	11LTibAnt	12lTibPost	13LPeroneusLong	14LSol	15LExtDigLong	16LFlexDigLong	17RAddLong	18RGlutMax	19RGlutMed	20RIliopsoas	21RSemiMemb	22RBicFemLong	23RRecFem	24RVastMed	25RVastLat	26RGasMed	27RTibAnt	28RTibPost	29RPeroneusLong	30RSol	31RExtDigLong	32RFlexDigLong
12.78	-0.000916	0.003662	0.07019	0.010529	0.024261	-0.041656	0.1532	0.036163	-0.22079	-1.0225	0.058289	-0.002289	-0.034637	-0.26199	0.39047	-0.063171	-0.052032	-0.037231	0.3688	0.009918	-0.010834	-0.038605	0.49164	-0.045319	-0.022736	0.005646	0.10986	-0.006561	0.54825	0.010223	0.01236	-0.011292
12.781	-0.003662	0.019379	0.050812	-0.013123	0.017395	0.013885	0.13489	0.038147	-0.23636	-0.28946	-0.010681	-0.29297	0.039978	-0.31876	0.38116	-0.011292	-0.022888	-0.074005	0.017548	0.083771	-0.019379	-0.0354	0.46539	-0.066681	-0.027161	-0.001526	0.098572	-0.004883	0.50537	-0.028992	0.009766	-0.01358
12.782	0.004272	0.003967	0.057526	-0.00061	0.009308	0.020142	0.03067	0.039215	-0.20905	-0.21088	0.001831	-0.0177	0.003815	-0.1445	0.23209	-0.038757	-0.001831	-0.05661	0.28381	0.05661	-0.023499	-0.012207	0.44235	-0.11368	-0.009613	-0.015717	0.097198	-0.001831	0.010681	0.007935	0.009308	-0.016785
12.783	0.006256	0.028839	0.054626	-0.005798	0.008698	-0.018158	-0.17105	0.023499	-0.16953	-0.17853	0.019226	0.067596	-0.011749	0.07019	-0.037079	-0.047913	-0.001373	-0.11902	0.18509	0.082703	-0.031586	-0.027466	0.15411	-0.13062	-0.001984	-0.023804	0.19363	-0.010071	-0.55893	0.025635	0.012512	-0.014648
12.784	0.020599	0.042419	0.064087	-0.009155	0.018768	-0.028992	-0.21973	0.00412	0.02121	-0.25192	0.039215	0.007629	-0.01236	0.28717	-0.073242	-0.039978	0.002747	-0.12207	0.22263	0.090027	-0.042725	-0.007935	-0.057373	-0.13947	-0.022278	-0.017395	0.17303	-0.009766	-0.1294	0.006866	0.015259	-0.005341
12.785	0.009918	0.036926	0.061951	0.014801	0.016632	0.007172	-0.011749	-0.030975	0.14496	-0.41718	0.03952	0.000763	-0.027771	0.32791	0.012054	-0.053101	0.014191	-0.14694	-0.056152	0.059967	-0.055847	-0.014648	0.083923	-0.13016	-0.039063	-0.01358	0.1265	-0.001373	0.19196	-0.036011	0.014038	-0.015717
12.786	-0.000458	-0.02121	0.01709	0.00885	-0.001984	0.089264	0.14282	-0.016174	0.023804	-0.26947	0.019379	-0.006409	-0.020905	0.14816	0.055542	-0.047913	0.089722	-0.13046	-0.26337	0.014648	-0.068512	-0.027466	0.001678	-0.11108	-0.027466	-0.01236	0.14587	-0.004578	0.45746	-0.069427	0.013123	-0.007629
12.787	-0.058289	0.04303	-0.002747	0.013733	0.007172	0.054321	0.20081	-0.008545	0.027313	-0.088654	0.012207	-0.022736	-0.02243	0.14893	0.074463	-0.033112	0.11353	-0.10819	-0.097809	-0.052185	-0.069733	-0.0177	-0.103	-0.076294	-0.015259	-0.015717	0.21332	0.001221	0.22827	-0.071869	0.014648	-0.008087
12.788	-0.002594	0.050659	0.038452	0.007935	0.000458	0.068054	0.31036	0.003815	-0.043793	-0.050507	0.007019	-0.017548	-0.032043	0.20355	0.10422	-0.030975	0.072174	-0.10422	0.21271	-0.14206	-0.02121	-0.009003	-0.11002	-0.11017	-0.018158	-0.018616	-0.015411	-0.009613	-0.095978	-0.084839	0.015869	-0.007477
12.789	0.046844	0.083771	0.026855	0.017853	0.007324	0.070648	0.26916	0.008698	-0.093079	-0.10025	0.010223	-0.014343	-0.022583	0.13687	0.089722	-0.054016	0.056152	-0.13397	0.12436	-0.14587	0.009308	0.006104	-0.090485	-0.032349	-0.019989	-0.001221	0.10284	-0.005951	-0.46234	-0.11047	0.012512	0.000305
12.79	0.00061	0.12909	0.02243	0.003967	0.011444	0.043488	0.23102	0.010071	-0.19119	-0.23285	-0.004272	-0.015564	-0.002136	0.027771	0.056152	-0.025177	0.044708	-0.12604	0.069427	-0.033569	-0.036163	-0.016937	-0.33463	-0.003662	0.002441	0.001068	-0.074768	-0.013733	-0.15579	-0.065308	0.013275	0.009613
12.791	-0.011902	0.11566	0.058441	0.009766	0.008698	0.013733	0.053864	0.033112	-0.17364	-0.22842	0.098724	-0.011597	-0.035248	0.024567	0.4631	-0.048676	0.039673	-0.13077	0.023499	0.047913	-0.081787	-0.004425	-0.32547	-0.12482	0.011292	-0.00473	-0.46631	-0.002289	0.088348	0.001373	0.019836	0.00946
12.792	0.003052	0.15778	0.10437	0.001526	0.012665	0.010834	-0.10284	0.03067	-0.046844	-0.15503	0.25421	-0.006256	-0.052185	0.096436	0.4512	-0.034485	0.020905	-0.11475	0.22049	0.14343	-0.076294	0.019531	-0.35156	-0.14633	0.015106	-0.010376	-0.47699	-0.014191	0.18112	-0.027618	0.015259	0.003815
12.793	0.00885	0.1471	0.17197	0.009613	0.010986	0.001373	-0.20172	0.019684	0.10651	-0.12177	0.097351	-0.005798	0.05127	0.093231	0.6076	-0.050049	0.047913	-0.15884	-0.121	0.20935	0.026398	0.001526	-0.33676	-0.11993	0.039368	-0.008087	-0.17548	-0.012665	0.021057	-0.033722	0.013428	0.003967
12.794	-0.000916	0.10407	0.16129	0.004425	0.009003	0.017853	0.016174	-0.000458	0.10956	-0.11139	-0.048981	-0.001984	0.048523	0.16266	-0.18188	-0.021515	0.13229	-0.1445	-0.44861	0.24689	0.10681	-0.008545	-0.30197	-0.10498	0.025635	-0.008698	0.28488	-0.012054	-0.19134	-0.018311	0.013733	-0.010529
12.795	0.003357	0.082703	0.22339	0.022736	0.010529	0.006866	0.11322	-0.008392	0.022583	-0.10086	-0.10101	0.001221	0.060425	0.15472	-0.29221	-0.041962	0.15396	-0.13306	0.069733	0.1413	0.066223	0.004578	-0.21164	-0.064697	0.03479	-0.00885	0.5072	-0.011444	-0.20309	-0.042725	0.014343	-0.012665
12.796	0.006104	0.09079	0.1535	0.013733	0.018005	-0.014954	0.042725	-0.019684	0.028992	-0.080566	-0.034637	-0.000916	-0.009766	0.10956	-0.27466	-0.037384	0.1384	-0.12619	0.6839	0.013275	-0.14938	0.017853	-0.14084	-0.043945	0.022888	-0.000458	0.36438	-0.017395	-0.098572	-0.052185	0.01297	-0.007935
12.797	-0.001984	0.10208	0.10986	0.019531	0.009003	-0.009003	0.076752	-0.003967	0.010223	-0.059052	-0.18753	0.005188	-0.030212	0.10452	-0.31952	-0.022736	0.10407	-0.076447	0.39703	-0.10025	-0.1236	-0.005035	-0.12512	-0.030365	0.017242	-0.004883	-0.3241	-0.01297	-0.015869	-0.10239	0.014648	-0.009003
12.798	-0.001678	0.040894	0.005188	0.008087	0.007172	-0.040131	0.11978	0.007477	-0.042725	-0.025787	-0.27908	0.006866	-0.005341	0.10361	-0.36758	0.007019	0.022736	-0.11871	-0.064545	-0.14175	-0.066681	-0.036926	-0.053864	-0.00473	0.033722	-0.003052	-0.77957	-0.015259	0.024414	-0.16968	0.013275	-0.011444
12.799	-0.013123	0.045319	-0.007172	0.015259	0.005035	-0.029907	0.12177	0.016174	-0.032654	-0.02182	-0.11444	0.001678	0.035706	0.1033	-0.086365	0.005646	-0.050507	-0.10239	0.08316	-0.12024	0.065613	-0.053864	-0.090637	-0.013123	0.037384	-0.001373	-0.45105	-0.020142	-0.10941	-0.15137	0.014801	-0.011139
12.8	-0.013733	0.041809	0.054474	0.001678	0.010071	0.074921	0.11032	0.000916	0.039368	-0.003967	0.046539	0.000153	0.019379	0.070343	-0.43274	0.020905	-0.12131	-0.087738	0.27268	-0.11917	0.057983	-0.044403	-0.059662	0.030212	0.048523	0.004272	-0.38635	-0.012817	-0.053253	-0.092468	0.011749	0.001373
12.801	-0.001373	0.046844	0.09552	-0.013885	0.004425	0.20004	0.13718	0.003967	0.017853	0.016632	0.18036	0.010834	-0.048065	0.019836	-0.11643	0.014038	-0.16586	-0.13718	0.024261	-0.061035	0.096283	0.003052	-0.064392	0.009308	0.039063	-0.000305	-0.10544	-0.011902	-0.062103	-0.012665	0.013123	-0.011902
12.802	0	0.024414	0.068817	-0.006256	0.005035	0.24811	0.15411	0.007935	-0.025024	0.012207	0.31403	0.010986	-0.061798	-0.053253	-0.048065	0.006561	-0.19363	-0.10712	-0.17075	0.098877	-0.006409	0.10529	-0.024261	0.011444	0.019989	-0.006714	0.069733	-0.011902	-0.15442	0.12482	0.011139	-0.010986
12.803	-0.005035	0.027161	-0.007172	-0.017242	0.007782	0.19562	0.15488	0.009155	-0.040588	-0.02533	0.14114	0.007477	0.017395	-0.025787	0.013123	0.041656	-0.12451	-0.069275	-0.05661	0.12756	-0.008087	0.14603	-0.009003	-0.053558	0.003662	-0.001526	0.08255	-0.018005	-0.011444	0.045471	0.01358	-0.003357
12.804	-0.000763	-0.045166	-0.053711	-0.018921	-0.003357	0.27756	0.18402	0.008087	-0.021667	-0.021515	0.017242	0.001678	0.033722	-0.018921	0.023193	0.041504	0.010986	-0.11047	0.068817	0.098419	-0.02182	0.15305	0.014954	-0.062103	0.013885	0.009308	0.25711	-0.01236	0.054626	-0.087891	0.013428	-0.003815
12.805	-0.000153	-0.11765	-0.031891	-0.018311	0.002289	-0.031281	0.19257	0.002594	-0.00946	-0.010834	-0.00885	0.000305	-0.001984	-0.001068	0.049438	0.044098	0.029144	-0.13046	0.22232	0.092773	-0.075226	0.15381	-0.019989	-0.052948	0.023804	0.004578	0.44723	-0.011444	-0.036621	0.050659	0.016937	-0.014801
12.806	-0.001831	-0.070648	-0.010071	0.007477	0.016022	-0.27985	0.18066	0.011292	-0.007019	-0.010071	0.045929	0.001831	-0.05249	-0.082245	0.12589	0.021057	0.000305	-0.074463	0.17075	-0.023804	-0.042572	0.10101	0.018768	-0.045013	0.018616	-0.009155	0.55908	-0.01358	-0.11078	0.15869	0.016632	-0.00885
12.807	0.004578	-0.044861	0.002441	0.002289	0.012665	-0.18265	0.20386	0.003357	-0.008392	-0.00885	0.058136	0.014648	-0.054321	-0.12085	0.1181	0.004578	-0.012512	-0.079651	-0.035706	-0.18768	-0.026245	0.059052	-0.000153	-0.052185	0.023041	-0.01358	0.44876	-0.013733	-0.1268	0.050049	0.016022	-0.007782
12.808	-0.002747	-0.036316	0.020905	-0.014343	0.010071	-0.10117	0.2153	0.005493	-0.010681	-0.014191	0.000458	0.003052	0.000153	-0.057068	0.076904	0.009003	-0.02533	-0.05722	-0.059967	-0.26977	0.012207	0.060425	0.026093	-0.088043	0.003662	0.003204	-0.20325	-0.010834	0.068512	-0.039978	0.011902	-0.004425
12.809	0.010071	-0.032043	0.031433	0.00412	0.011597	0.010986	0.28809	0.002747	-0.041962	-0.007324	-0.011902	0.003052	0.005341	0.037842	0.027466	-0.0354	-0.05249	-0.05127	-0.011444	-0.14099	0.012512	0.037994	0.068512	-0.037537	0.023804	-0.002441	-0.34637	-0.011749	0.11108	-0.009003	0.015869	0.003815
12.81	0.052338	-0.032806	0.018463	0.019379	0.007477	-0.033417	0.3183	0.014496	-0.073242	-0.033875	-0.036774	0.000458	0.048676	0.025635	0.056305	0.023804	-0.048523	-0.013123	-0.059967	0.25467	-0.017395	0.009155	0.049591	-0.066528	0.04776	-0.011597	-0.168	-0.011292	0.077515	0.019836	0.009155	-0.007019
12.811	-0.002289	0.015106	0.009155	0.020294	0.026245	-0.19638	0.35904	0.017242	-0.12878	0.28748	-0.027008	0.000153	-0.020599	-0.024872	0.041504	0.057678	-0.069275	-0.025635	0.054626	0.2475	0.016785	-0.011749	0.10422	-0.020294	0.03006	-0.011444	-0.090027	-0.00885	0.050354	0.015717	0.007629	-0.01236
12.812	0.006409	0.0354	-0.015564	0.013275	0.017395	-0.27725	0.29617	0.027008	-0.15808	0.79605	0.024109	0.006104	-0.067749	-0.019531	0.018921	0.016937	-0.076141	-0.001068	-0.005951	0.030212	0.047913	0.002594	0.043488	-0.033417	0.016174	-0.011597	-0.080872	-0.00885	0.059509	-0.020905	0.010223	-0.012665
12.813	-0.012817	0.047302	-0.000153	0.011597	0.005493	-0.20584	0.22888	0.039368	-0.17151	0.699	-0.040588	-0.000305	0.031433	0.023499	0.090637	-0.25635	-0.063934	0.012665	-0.056915	-0.064697	0.065002	0.031891	-0.063019	-0.083771	-0.015564	-0.011139	-0.046692	-0.008698	0.023499	-0.022125	0.010071	-0.012512
12.814	0.001373	0.077972	-0.007782	0.018311	0.007172	-0.099335	0.21378	0.019073	-0.055847	0.005951	-0.059204	0.005493	0.086975	0.11871	0.12466	0.17288	-0.013275	-0.062256	-0.069427	0.029602	0.002899	0.068054	-0.065918	-0.12466	-0.016785	-0.005188	0.007629	-0.008545	0.006561	-0.056152	0.004425	-0.00824
12.815	0.001221	0.070801	0.001984	0.011597	0.011902	-0.080261	0.15381	0.001526	0.062103	-0.15915	-0.025482	0.005798	0.037689	0.3598	0.085297	0.17334	-0.023499	-0.078125	-0.020905	0.11841	-0.03891	0.038605	0.020905	-0.13886	0.001373	0.006104	0.011597	-0.004578	0.061646	-0.013123	0.006714	-0.010681
12.816	0.014191	0.093536	-0.010681	0.015411	0.012512	-0.010834	0.077362	-0.013428	0.062408	-0.028534	0.039673	0.00824	0.018311	0.20844	0.070343	-0.050964	-0.004883	-0.081482	0.14175	0.11673	-0.076141	0.045166	0.053101	-0.1387	0.021515	-0.005341	0.000763	-0.004883	0.055542	0.009613	0.010681	-0.003662
12.817	0.007935	0.11597	0.001221	0.003662	0.00824	0.002594	0.056152	0.006409	0.15182	-0.21988	0.02121	0.004883	0.029144	-0.027771	0.081482	-0.05127	-0.00473	-0.071564	0.10101	0.092163	-0.039063	0.018768	0.08316	-0.097351	0.019073	-0.002441	0.000916	-0.005341	0.050812	-0.01358	0.009308	-0.005646
12.818	0.007477	0.15823	0.005188	0.000458	0.021362	-0.006256	0.10132	-0.009308	0.14679	-0.26627	0.021362	0.005646	0.017853	-0.14603	0.39505	0.12619	0.012817	-0.070953	-0.045013	0.1001	-0.032654	0.019989	0.056152	-0.14038	0.010529	-0.009766	0.10422	-0.003662	-0.010834	-0.012665	0.005341	-0.004578
12.819	0.002899	0.14755	-0.024872	0.009155	0.018921	-0.019379	0.11978	0.004272	0.055389	-0.13306	0.027008	0.013733	0	-0.10956	0.48996	0.063934	0.052948	-0.084381	-0.053253	0.15335	-0.043182	0.007935	0.17899	-0.12238	0.01358	-0.010986	0.07019	-0.004425	-0.042877	-0.013428	0.010986	-0.003967
